<?xml version="1.0" encoding="utf-8"?>
<!-- Generator: Adobe Illustrator 26.4.1, SVG Export Plug-In . SVG Version: 6.00 Build 0)  -->
<svg version="1.1" id="Layer_1" xmlns="http://www.w3.org/2000/svg" xmlns:xlink="http://www.w3.org/1999/xlink" x="0px" y="0px"
	 viewBox="0 0 1024 1024" style="enable-background:new 0 0 1024 1024;" xml:space="preserve">
<style type="text/css">
	.st0{fill:#00A14B;stroke:#00A14B;stroke-miterlimit:10;}
	.st1{fill:#FFFFFF;stroke:#FFFFFF;stroke-width:3;stroke-miterlimit:10;}
</style>
<circle class="st0" cx="813.2" cy="682.4" r="95.9"/>
<path class="st0" d="M98.7,952.4c21.2-40.7,55.2-95.8,108.2-151.4c53.3-55.8,104.4-89.4,128.4-104.4
	c147.3-92,313.7-99.6,410.4-105.8c16.2-1,82.6-7.6,82.6-2.3c0,8.1-74,14.6-96.4,46.1c-33.2,46.6,6.5,87-7.7,82.1
	c-37.2-12.8-98.8-1.2-165.1,8.1c-83.4,11.7-179.4,53.9-203.5,66.3C287.2,826.2,239.4,854.7,98.7,952.4z"/>
<path class="st0" d="M96.9,952.4c11.7,2.3,22.3-168.4,146.5-367.1c48.9-78.2,101.9-163.1,202.3-229.1
	c168.6-110.8,384.5-111.2,382.5-124.4c-0.6-4-22.7,3.5-54-1.2c-9.8-1.5-57-8.1-68-15.1c-47.6-30-15.1-61.6-15.1-61.6
	c-13.4-24.1-76.1-38.8-203.5,36.1C318,289.6,230.4,431.8,207.4,471.3C71.5,703.9,83.1,949.7,96.9,952.4z"/>
<path class="st1" d="M310,574c90-21.6,106.4-34.2,153.7-92c75.3-81,79.2-74.4,163-120c29.5-16,161.5-37.7,145.3-23.6
	c-18.6,16.3-43.9,42.8-48.8,86.1c-2.3,20.5,13.4,46,30.2,57c51.4,33.5,121.8-32.1,123.8-26.7c2.7,6.8-35.1,75.4-92.2,81.2
	c-150,15.1-103.1,9.2-136.2,5.9c-41-8-70.8-18.8-136.8,7.6c-36.2,21-42.3,24.2-101,35.6C363,592.8,312.6,570,310,574z"/>
</svg>
